<svg width="18" height="22" viewBox="0 0 18 22" fill="none" xmlns="http://www.w3.org/2000/svg">
<g clip-path="url(#clip0_6_838)">
<path d="M10.452 18.865C10.4899 19.3303 10.3434 19.7918 10.0441 20.1501C9.74476 20.5083 9.31662 20.7346 8.852 20.78C8.38739 20.7346 7.95924 20.5083 7.65992 20.1501C7.36061 19.7918 7.2141 19.3303 7.252 18.865" stroke="#F15E38" stroke-width="1.3" stroke-miterlimit="10" stroke-linecap="round"/>
<path d="M15.962 16.38C15.6115 15.8223 15.4241 15.1777 15.421 14.519V9.33499C15.421 6.24099 13.702 2.71099 10.177 2.18899V1.52799C10.1521 1.27241 10.0275 1.03694 9.83026 0.872586C9.63296 0.708237 9.37885 0.628259 9.12299 0.649987H8.57899C8.32362 0.629088 8.07028 0.709444 7.87365 0.873711C7.67702 1.03798 7.55286 1.27298 7.52799 1.52799V2.18899C4.00299 2.71099 2.28399 6.24099 2.28399 9.33499V14.52C2.28086 15.1787 2.09346 15.8233 1.74299 16.381L0.74299 17.995C0.691344 18.0786 0.662973 18.1746 0.660809 18.2728C0.658645 18.3711 0.682767 18.4682 0.730681 18.554C0.778596 18.6399 0.848564 18.7114 0.933356 18.7611C1.01815 18.8108 1.11468 18.837 1.21299 18.837H16.487C16.5853 18.837 16.6818 18.8108 16.7666 18.7611C16.8514 18.7114 16.9214 18.6399 16.9693 18.554C17.0172 18.4682 17.0413 18.3711 17.0392 18.2728C17.037 18.1746 17.0086 18.0786 16.957 17.995L15.957 16.381L15.962 16.38Z" stroke="#2D3139" stroke-width="1.3" stroke-linecap="round" stroke-linejoin="round"/>
</g>
<defs>
<clipPath id="clip0_6_838">
<rect width="17.702" height="21.427" fill="white"/>
</clipPath>
</defs>
</svg>
