<svg width="20" height="24" viewBox="0 0 20 24" fill="none" xmlns="http://www.w3.org/2000/svg">
<g clip-path="url(#clip0_6_829)">
<path d="M18.6 9.59998C18.6 16.6 9.59998 22.6 9.59998 22.6C9.59998 22.6 0.599976 16.6 0.599976 9.59998C0.599976 8.41808 0.832767 7.24775 1.28506 6.15582C1.73735 5.06389 2.40029 4.07174 3.23601 3.23601C4.07174 2.40029 5.06389 1.73735 6.15582 1.28506C7.24775 0.832767 8.41808 0.599976 9.59998 0.599976C10.7819 0.599976 11.9522 0.832767 13.0441 1.28506C14.1361 1.73735 15.1282 2.40029 15.9639 3.23601C16.7997 4.07174 17.4626 5.06389 17.9149 6.15582C18.3672 7.24775 18.6 8.41808 18.6 9.59998Z" stroke="#2D3139" stroke-width="1.2" stroke-linecap="round" stroke-linejoin="round"/>
<path d="M9.59998 12.6C11.2568 12.6 12.6 11.2568 12.6 9.59998C12.6 7.94312 11.2568 6.59998 9.59998 6.59998C7.94312 6.59998 6.59998 7.94312 6.59998 9.59998C6.59998 11.2568 7.94312 12.6 9.59998 12.6Z" stroke="#FE5D31" stroke-width="1.2" stroke-linecap="round" stroke-linejoin="round"/>
</g>
<defs>
<clipPath id="clip0_6_829">
<rect width="19.2" height="23.2" fill="white"/>
</clipPath>
</defs>
</svg>
