<svg width="24" height="20" viewBox="0 0 24 20" fill="none" xmlns="http://www.w3.org/2000/svg">
<g clip-path="url(#clip0_6_797)">
<path d="M2.5671 0.600098H14.3671C14.6255 0.599967 14.8814 0.650748 15.1201 0.74954C15.3589 0.848332 15.5759 0.993199 15.7586 1.17587C15.9414 1.35853 16.0864 1.57542 16.1853 1.81413C16.2842 2.05284 16.3351 2.3087 16.3351 2.5671V9.4511C16.3351 9.70941 16.2842 9.96519 16.1854 10.2038C16.0865 10.4425 15.9416 10.6593 15.759 10.842C15.5763 11.0246 15.3595 11.1695 15.1208 11.2684C14.8822 11.3672 14.6264 11.4181 14.3681 11.4181H4.3451L0.600098 13.5091V2.5671C0.600098 2.04542 0.807335 1.5451 1.17622 1.17622C1.5451 0.807335 2.04542 0.600098 2.5671 0.600098Z" fill="white" stroke="#2D3139" stroke-width="1.2" stroke-linejoin="round"/>
<path d="M6.1001 7.00007C6.59716 7.00007 7.0001 6.59713 7.0001 6.10007C7.0001 5.60302 6.59716 5.20007 6.1001 5.20007C5.60305 5.20007 5.2001 5.60302 5.2001 6.10007C5.2001 6.59713 5.60305 7.00007 6.1001 7.00007Z" stroke="#FE5D31" stroke-width="1.2"/>
<path d="M11.1001 7.00007C11.5972 7.00007 12.0001 6.59713 12.0001 6.10007C12.0001 5.60302 11.5972 5.20007 11.1001 5.20007C10.603 5.20007 10.2001 5.60302 10.2001 6.10007C10.2001 6.59713 10.603 7.00007 11.1001 7.00007Z" stroke="#FE5D31" stroke-width="1.2"/>
<path d="M9.91113 16.1472H18.3601L22.6101 18.697V9.79711C22.6438 9.48024 22.6062 9.16005 22.5 8.85961C22.3938 8.55916 22.2219 8.2861 21.9966 8.06078C21.7713 7.83545 21.4982 7.66354 21.1978 7.55736C20.8973 7.45118 20.5769 7.41329 20.26 7.44701" stroke="#2D3139" stroke-width="1.2" stroke-linecap="round" stroke-linejoin="round"/>
</g>
<defs>
<clipPath id="clip0_6_797">
<rect width="23.222" height="19.297" fill="white"/>
</clipPath>
</defs>
</svg>
